<svg version="1.1" viewBox="0.0 0.0 800.0 800.0" fill="none" stroke="none" stroke-linecap="square" stroke-miterlimit="10" xmlns:xlink="http://www.w3.org/1999/xlink" xmlns="http://www.w3.org/2000/svg"><clipPath id="g83e0cad2d5_0_0.0"><path d="m0 0l800.0 0l0 800.0l-800.0 0l0 -800.0z" clip-rule="nonzero"/></clipPath><g clip-path="url(#g83e0cad2d5_0_0.0)"><path fill="#000000" fill-opacity="0.0" d="m0 0l800.0 0l0 800.0l-800.0 0z" fill-rule="evenodd"/><g filter="url(#shadowFilter-g83e0cad2d5_0_0.1)"><use xlink:href="#g83e0cad2d5_0_0.1" transform="matrix(1.0 0.0 0.0 1.0 0.0 2.0)"/></g><defs><filter id="shadowFilter-g83e0cad2d5_0_0.1" filterUnits="userSpaceOnUse"><feGaussianBlur in="SourceAlpha" stdDeviation="2.0" result="blur"/><feComponentTransfer in="blur" color-interpolation-filters="sRGB"><feFuncR type="linear" slope="0" intercept="0.0"/><feFuncG type="linear" slope="0" intercept="0.0"/><feFuncB type="linear" slope="0" intercept="0.0"/><feFuncA type="linear" slope="0.5" intercept="0"/></feComponentTransfer></filter></defs><g id="g83e0cad2d5_0_0.1"><path fill="#f97171" d="m16.0 400.0l0 0c0 -212.07735 171.92265 -384.0 384.0 -384.0l0 0c101.84314 0 199.51501 40.457027 271.529 112.47099c72.01398 72.01398 112.47101 169.68587 112.47101 271.529l0 0c0 212.07733 -171.92267 384.0 -384.0 384.0l0 0c-212.07735 0 -384.0 -171.92267 -384.0 -384.0z" fill-rule="evenodd"/><path stroke="#595959" stroke-width="1.0" stroke-linejoin="round" stroke-linecap="butt" d="m16.0 400.0l0 0c0 -212.07735 171.92265 -384.0 384.0 -384.0l0 0c101.84314 0 199.51501 40.457027 271.529 112.47099c72.01398 72.01398 112.47101 169.68587 112.47101 271.529l0 0c0 212.07733 -171.92267 384.0 -384.0 384.0l0 0c-212.07735 0 -384.0 -171.92267 -384.0 -384.0z" fill-rule="evenodd"/><path fill="#f3f3f3" d="m297.1937 396.79688q61.203125 58.796875 86.8125 88.40625q13.1875 14.796875 13.1875 25.0q0 10.203125 -16.0 24.0q-16.0 13.796875 -26.203125 13.796875q-10.1875 0 -24.59375 -16.796875l-88.000015 -100.40625l0 78.0q0 9.609375 -0.609375 14.015625q-0.59375 4.390625 -3.78125 10.390625q-5.609375 10.796875 -31.203125 10.796875q-28.0 0 -32.796875 -15.203125q-2.40625 -6.390625 -2.40625 -20.390625l0 -222.40625q0 -9.203125 0.59375 -13.796875q0.609375 -4.609375 3.8125 -10.609375q5.59375 -10.79689 31.1875 -10.79689q28.0 0 33.203125 14.79689q2.0 6.8125 2.0 20.8125l0 76.390625q54.406265 -61.203125 88.000015 -100.390625q14.0 -16.406265 24.390625 -16.406265q10.40625 0 26.40625 13.79689q16.0 13.796875 16.0 24.0q0 10.203125 -12.0 24.203125q-23.1875 26.796875 -72.0 73.59375l-16.0 15.203125zm134.41257 106.0q-10.40625 -12.796875 -10.40625 -23.0q0 -10.203125 17.203125 -27.0q10.0 -9.59375 21.1875 -9.59375q11.203125 0 31.203125 20.0q5.609375 6.796875 16.0 13.0q10.40625 6.203125 19.203125 6.203125q37.203125 0 37.203125 -30.40625q0 -9.203125 -10.203125 -15.390625q-10.203125 -6.203125 -25.40625 -9.0q-15.1875 -2.8125 -32.796875 -9.0q-17.59375 -6.203125 -32.796875 -14.609375q-15.203125 -8.40625 -25.40625 -26.59375q-10.1875 -18.203125 -10.1875 -43.8125q0 -35.1875 26.1875 -61.390625q26.203125 -26.20314 71.40625 -26.20314q24.0 0 43.796875 6.203125q19.8125 6.2031403 27.40625 12.593765l10.0 7.609375q12.40625 11.59375 12.40625 19.59375q0 8.0 -9.609375 22.0q-13.59375 20.0 -28.0 20.0q-8.390625 0 -20.796875 -8.0q-1.203125 -0.796875 -4.609375 -4.0q-3.390625 -3.203125 -6.1875 -5.203125q-8.40625 -5.203125 -21.40625 -5.203125q-13.0 0 -21.609375 6.203125q-8.59375 6.203125 -8.59375 17.203125q0 11.0 10.203125 17.796875q10.203125 6.796875 25.40625 9.203125q15.203125 2.40625 33.203125 7.40625q18.0 5.0 33.1875 12.203125q15.203125 7.1875 25.40625 25.0q10.203125 17.796875 10.203125 43.796875q0 26.0 -10.40625 45.796875q-10.390625 19.796875 -27.203125 30.59375q-32.390625 21.203125 -69.1875 21.203125q-18.8125 0 -35.609375 -4.59375q-16.796875 -4.609375 -27.203125 -11.40625q-21.1875 -12.796875 -29.59375 -24.796875l-3.59375 -4.40625z" fill-rule="nonzero"/></g></g></svg>